<svg id="bbc236d0-0966-4fbc-b2c9-dfe9ebac1917" data-name="Layer 2" xmlns="http://www.w3.org/2000/svg" width="184" height="60" viewBox="0 0 184 60">
  <defs>
    <style>
      .b474cd36-4c0e-42ea-9051-9cf93ae11fd0 {
        fill: #fff;
      }
    </style>
  </defs>
  <title>logo-pucpr-branca</title>
  <g id="eb3255bc-4b68-4caa-9601-0687c77db095" data-name="Layer 3">
    <g>
      <path class="b474cd36-4c0e-42ea-9051-9cf93ae11fd0" d="M28.4348,47.24655l.20619.39544a.41191.41191,0,0,0-.20653.60587.38956.38956,0,0,0,.56885.19157c.53364-.27833-.02243-1.4192.7761-1.83579a.7621.7621,0,0,1,1.064.38259.79661.79661,0,0,1-.362,1.1411l-.2062-.39544a.3786.3786,0,0,0,.19776-.54757.34453.34453,0,0,0-.495-.18129c-.526.27436.06281,1.403-.77023,1.83758a.88617.88617,0,0,1-.7729-1.59417Z"/>
      <path class="b474cd36-4c0e-42ea-9051-9cf93ae11fd0" d="M29.55674,49.20548l1.02889-.70418a.83662.83662,0,0,1,1.27649.18623.85178.85178,0,0,1-.25971,1.269l-.24441-.35732c.27828-.222.32252-.441.1587-.68044-.14427-.21083-.379-.25483-.67928-.04943l-1.029.7042c-.29649.203-.34055.43766-.19131.65564.16618.243.39009.27869.693.1081l.2445.35733a.85792.85792,0,0,1-1.28046-.2307.83809.83809,0,0,1,.2826-1.25841Z"/>
      <path class="b474cd36-4c0e-42ea-9051-9cf93ae11fd0" d="M32.84227,50.04815,30.5266,52.00366l-.28212-.33409L32.56,49.71406Z"/>
      <path class="b474cd36-4c0e-42ea-9051-9cf93ae11fd0" d="M32.45429,53.38194l-.28506.29635L31.06807,52.6185l2.10172-2.18344,1.06975,1.02974-.28506.29631-.75494-.72656-.60944.63322.69551.66951-.27914.29012-.69562-.66951-.64243.66748Z"/>
      <path class="b474cd36-4c0e-42ea-9051-9cf93ae11fd0" d="M35.98035,52.72855l-1.7398,2.4823-.35808-.251.29921-1.60406c.05482-.23662.13341-.56755.185-.7694l-.01565-.00038c-.14917.26559-.39243.65041-.55643.88445l-.671.95743-.35472-.2485,1.73989-2.48231.35809.251-.31643,1.66615c-.0423.21889-.11158.514-.15564.70515l.01552.00037c.14314-.26457.38279-.65184.537-.87165l.67864-.96811Z"/>
      <path class="b474cd36-4c0e-42ea-9051-9cf93ae11fd0" d="M37.51918,53.978l-.56537-.28286-1.17014,2.33854-.39891-.19954L36.555,53.4956l-.56147-.28093.18609-.37172,1.52545.76338Z"/>
      <path class="b474cd36-4c0e-42ea-9051-9cf93ae11fd0" d="M38.366,53.843,37.268,56.66846l-.4076-.15841,1.09775-2.82551Z"/>
      <path class="b474cd36-4c0e-42ea-9051-9cf93ae11fd0" d="M39.26839,56.66393l-.77079-.21873-.3.54963-.4415-.12536,1.561-2.70821.45408.12891-.09457,3.12442-.43733-.1242Zm.0236-.41638.039-.83528c.01273-.20354.0461-.4956.069-.65564l-.01256-.00354c-.0645.14823-.1854.41546-.28565.59409l-.40141.73245Z"/>
      <path class="b474cd36-4c0e-42ea-9051-9cf93ae11fd0" d="M40.56591,57.14358l-.4425.94408-.25467-.05146.28983-.975Z"/>
      <path class="b474cd36-4c0e-42ea-9051-9cf93ae11fd0" d="M42.05473,54.76655l.45715.04021.216,1.69687c.03693.27271.05869.57018.08044.81557l.0173.00149c.06441-.2377.14187-.52653.22165-.78907l.51287-1.63269.45287.03971-1.00723,2.95423-.47442-.04159Z"/>
      <path class="b474cd36-4c0e-42ea-9051-9cf93ae11fd0" d="M44.70514,54.93629l-.01778,3.03046-.43719-.00266.01782-3.03045Z"/>
      <path class="b474cd36-4c0e-42ea-9051-9cf93ae11fd0" d="M46.775,55.3114l-.63188.0229.09459,2.61392-.4458.016-.09445-2.61392-.62757.02274-.015-.4155,1.70515-.06168Z"/>
      <path class="b474cd36-4c0e-42ea-9051-9cf93ae11fd0" d="M48.3052,57.1469l-.795.09789-.06287.62292-.45553.056.38593-3.10147.46848-.05771L48.973,57.67986l-.45134.05551Zm-.14-.39283-.28867-.78471c-.06716-.19242-.15-.47456-.191-.6309l-.013.00161c-.00191.16163-.00955.45485-.03238.65837l-.08539.83074Z"/>
      <path class="b474cd36-4c0e-42ea-9051-9cf93ae11fd0" d="M51.9131,56.48309l.12027.39321-1.46152.44678L49.686,54.425l1.42-.43408.12027.39328-1.00189.3063.25688.84046.92322-.28226.1177.385-.92322.28222.27085.886Z"/>
      <path class="b474cd36-4c0e-42ea-9051-9cf93ae11fd0" d="M52.973,53.6093l-.5746.26359,1.0905,2.37721-.40543.18592-1.0905-2.37721-.57069.26182-.17342-.3778,1.55077-.71133Z"/>
      <path class="b474cd36-4c0e-42ea-9051-9cf93ae11fd0" d="M54.33064,52.71629l.54253.72435.73137-.5479.23892.31887-.73128.54779.78921,1.05352-.34986.26225L53.734,52.64938l1.1436-.85682.2467.3292Z"/>
      <path class="b474cd36-4c0e-42ea-9051-9cf93ae11fd0" d="M55.408,51.27244l2.07553,2.2082-.31854.2995L55.08932,51.572Z"/>
      <path class="b474cd36-4c0e-42ea-9051-9cf93ae11fd0" d="M55.76451,50.94316l.48309-.57818a.859.859,0,0,1,1.32412-.11257l.87069.72739a.86239.86239,0,0,1,.13409,1.3253l-.48583.58156Zm2.493,1.09545a.46695.46695,0,0,0-.105-.72539l-.85728-.71628a.46027.46027,0,0,0-.72587.03126l-.20534.24591,1.68812,1.41038Z"/>
      <path class="b474cd36-4c0e-42ea-9051-9cf93ae11fd0" d="M60.08851,49.40924l.34964.21661-.80482,1.2993-2.57661-1.596.782-1.26244.34975.21663-.55173.89076.74723.46282.5084-.82078.34228.212-.50849.82079.7877.488Z"/>
      <path class="b474cd36-4c0e-42ea-9051-9cf93ae11fd0" d="M59.93321,48.816l.18837-.40419a.41165.41165,0,0,0,.60638-.20458.38937.38937,0,0,0-.19382-.568c-.54541-.25422-1.11253.881-1.92891.5006a.762.762,0,0,1-.34342-1.07708.79647.79647,0,0,1,1.12568-.40681l-.18838.40419a.37873.37873,0,0,0-.55489.176.34455.34455,0,0,0,.15726.50312c.53763.25051,1.07521-.90318,1.92671-.5063a.886.886,0,0,1-.795,1.583Z"/>
      <path class="b474cd36-4c0e-42ea-9051-9cf93ae11fd0" d="M44.60159,10.409a2.977,2.977,0,0,0,3.74361-.06519.11381.11381,0,0,0,.001-.161l-.00346-.00335a18.79747,18.79747,0,0,0-2.842-2.191.04766.04766,0,0,1-.02283-.04062V5.9177a.048.048,0,0,1,.048-.048H47.0939a.11539.11539,0,0,0,.1154-.11538h0V4.17851a.11539.11539,0,0,0-.1154-.1154H45.526a.048.048,0,0,1-.048-.048h0V2.06735a.1154.1154,0,0,0-.1154-.11539H43.78676a.11541.11541,0,0,0-.11541.11539V4.01511a.048.048,0,0,1-.048.048H42.05545a.11539.11539,0,0,0-.1154.1154h0V5.75433a.11537.11537,0,0,0,.11537.11538h1.568a.048.048,0,0,1,.048.048V7.9479a.04763.04763,0,0,1-.02282.0406,18.79551,18.79551,0,0,0-2.84148,2.19059.11441.11441,0,0,0-.006.16168l.00334.00344a2.97717,2.97717,0,0,0,3.74328.06483A.04685.04685,0,0,1,44.60159,10.409Z"/>
      <path class="b474cd36-4c0e-42ea-9051-9cf93ae11fd0" d="M44.59783,14.81163c.31481.17381,3.77368,2.00177,6.34746-.10544a.11481.11481,0,0,0,.03185-.13569A16.22822,16.22822,0,0,0,49.811,12.46411a.11683.11683,0,0,0-.09741-.053H39.43579a.11675.11675,0,0,0-.09737.053,16.22382,16.22382,0,0,0-1.16621,2.10642.11481.11481,0,0,0,.03185.13568c2.57377,2.10717,6.03265.27924,6.34746.10543A.04763.04763,0,0,1,44.59783,14.81163Z"/>
      <path class="b474cd36-4c0e-42ea-9051-9cf93ae11fd0" d="M49.42027,33.1788l-4.20739,2.45969a.11084.11084,0,0,1-.1668-.0957V30.96552a.11086.11086,0,0,1,.0549-.0957l4.2074-2.45969a.11085.11085,0,0,1,.1668.09578v4.57728A.11084.11084,0,0,1,49.42027,33.1788Z"/>
      <path class="b474cd36-4c0e-42ea-9051-9cf93ae11fd0" d="M39.72907,33.1788l4.2074,2.45969a.11085.11085,0,0,0,.1668-.0957V30.96552a.11086.11086,0,0,0-.05492-.0957L39.841,28.41017a.11085.11085,0,0,0-.1668.09578v4.57729A.1108.1108,0,0,0,39.72907,33.1788Z"/>
      <path class="b474cd36-4c0e-42ea-9051-9cf93ae11fd0" d="M52.7442,41.18231l-7.53138,4.40133a.11085.11085,0,0,1-.16679-.09577V36.742a.1109.1109,0,0,1,.05491-.09578l7.53135-4.40134a.11085.11085,0,0,1,.16679.09578v8.74589A.11086.11086,0,0,1,52.7442,41.18231Z"/>
      <path class="b474cd36-4c0e-42ea-9051-9cf93ae11fd0" d="M36.40513,41.18231l7.53135,4.40133a.11085.11085,0,0,0,.16679-.09577V36.742a.11089.11089,0,0,0-.05493-.09578L36.517,32.24492a.11085.11085,0,0,0-.16679.09578v8.74589A.11089.11089,0,0,0,36.40513,41.18231Z"/>
      <path class="b474cd36-4c0e-42ea-9051-9cf93ae11fd0" d="M37.4446,17.106a.09549.09549,0,0,1-.09114-.06825,2.56216,2.56216,0,0,0-.99337-1.3565l-5.8845-4.07695a2.11579,2.11579,0,0,0-2.94407.53422l-.54931.79285-2.30793-1.46415a.096.096,0,0,0-.13243.0296v0l-.9256,1.45886a.096.096,0,0,0,.02963.13244L25.888,14.5106l-5.01782,7.24247a.096.096,0,0,0,.02423.13355L26.6219,25.8547a.096.096,0,0,0,.13352-.02418l6.285-9.05685a1.82872,1.82872,0,0,1,2.49112-.23679,1.9411,1.9411,0,0,1,.75427,2.149.09663.09663,0,0,1-.14417.05518L34.02776,17.4a.096.096,0,0,0-.13027.02633l-.98633,1.42131a.096.096,0,0,0,.02414.13358l.00331.00219L40.78,23.958a.048.048,0,0,1-.02571.08852H32.58047a.096.096,0,0,0-.096.096v7.5956a.048.048,0,0,1-.02228.04052l-5.4636,3.46579a.048.048,0,0,1-.07072-.057,3.94655,3.94655,0,1,0-6.95019.98856.04668.04668,0,0,1-.01039.06519l-.01478.00715a3.9464,3.9464,0,1,0,4.00874,6.47059.047.047,0,0,1,.06632-.00313l.01.01293a3.94639,3.94639,0,1,0,4.01-5.77943.04781.04781,0,0,1-.02005-.08779l4.38328-2.78052a.048.048,0,0,1,.07369.04054V39.0962a12.09057,12.09057,0,0,0,24.17972.26121q.0007-.065.0007-.13v-5.106a.048.048,0,0,1,.0737-.04054l4.38328,2.78049a.04781.04781,0,0,1-.02006.0878,3.94665,3.94665,0,1,0,4.00989,5.7796.04707.04707,0,0,1,.06354-.01982l.013.01a3.94629,3.94629,0,1,0,4.00852-6.47074.04656.04656,0,0,1-.03231-.05737l.00718-.01485a3.94623,3.94623,0,1,0-6.95-.98825.04789.04789,0,0,1-.07051.05682l-5.46388-3.466a.048.048,0,0,1-.0223-.04053V24.14246a.096.096,0,0,0-.096-.096H48.39518a.048.048,0,0,1-.02571-.08852l7.8413-4.97452a.096.096,0,0,0,.02962-.13246l-.00219-.00331-.98631-1.42125a.096.096,0,0,0-.13028-.02633l-2.11381,1.341a.09669.09669,0,0,1-.14421-.05519,1.94113,1.94113,0,0,1,.75427-2.149,1.82864,1.82864,0,0,1,2.49109.23686l6.285,9.05676a.096.096,0,0,0,.13352.02419l5.72742-3.96815a.096.096,0,0,0,.02423-.13351L63.2898,14.55169a.048.048,0,0,1,.01215-.06678l.00159-.00107,2.2-1.39571a.096.096,0,0,0,.02963-.13243h0l-.92559-1.45884a.096.096,0,0,0-.13249-.02963l-2.269,1.43946a.048.048,0,0,1-.06518-.01318l-.52307-.755a2.1158,2.1158,0,0,0-2.94408-.53422l-5.8845,4.077a2.56254,2.56254,0,0,0-.99342,1.3565.09547.09547,0,0,1-.09112.06825Zm21.97478,1.8374,1.114-.77181a.048.048,0,0,0,.01211-.06678l-.90059-1.29991-.10457-.151a.096.096,0,0,1,.02426-.13359l.99212-.68735a.096.096,0,0,1,.13357.02423h0l.13689.1976.86831,1.25326a.048.048,0,0,0,.06675.01213h0l1.114-.77183a.096.096,0,0,1,.13355.02424l.68737.99216a.096.096,0,0,1-.02422.13354h0l-1.114.77181a.048.048,0,0,0-.01213.06677h0l1.40262,2.02445a.096.096,0,0,1-.02424.13357h0l-.99215.6874a.096.096,0,0,1-.13355-.02424l-1.40267-2.02444a.048.048,0,0,0-.06678-.01212l-1.114.77183a.096.096,0,0,1-.13355-.02424l-.68737-.99214a.096.096,0,0,1,.02419-.13356ZM29.75425,19.077l-.68739.99215a.096.096,0,0,1-.13356.02424l-1.114-.77183a.048.048,0,0,0-.06678.01212L26.3499,21.35811a.096.096,0,0,1-.13359.02424L25.2242,20.695A.096.096,0,0,1,25.2,20.56138h0l1.40262-2.02445a.048.048,0,0,0-.01211-.06676h0l-1.114-.77182a.096.096,0,0,1-.02424-.13354h0l.68741-.99215a.096.096,0,0,1,.13357-.02424h0l1.114.77182a.048.048,0,0,0,.06677-.0121v0l.86826-1.25325.13694-.19762a.096.096,0,0,1,.13355-.02422h0l.99212.68735a.096.096,0,0,1,.02425.13359l-.10456.151-.9006,1.29991a.048.048,0,0,0,.01211.06678l1.114.77181a.096.096,0,0,1,.0242.13352Zm-8.49252,23.3067A2.35841,2.35841,0,1,1,23.421,40.2244a2.35842,2.35842,0,0,1-2.15928,2.15926ZM23.39,36.24686a2.35846,2.35846,0,1,1,2.15927-2.15925A2.35841,2.35841,0,0,1,23.39,36.24686Zm6.47364,4.42153a2.15923,2.15923,0,1,1,0-.00005Zm8.955-20.33923a6.67384,6.67384,0,0,0,5.72879-.84311.04647.04647,0,0,1,.05454,0,6.67373,6.67373,0,0,0,5.72874.84311.04769.04769,0,0,1,.04066.08551l-5.66424,3.59338a.24727.24727,0,0,1-.13247.03848h0a.24721.24721,0,0,1-.13247-.03848l-5.66425-3.5934a.04767.04767,0,0,1,.0407-.08555ZM55.22591,39.22668a10.65156,10.65156,0,1,1-21.30312.00873q0-.06218.00068-.12437V25.58145a.096.096,0,0,1,.096-.096H55.12993a.096.096,0,0,1,.096.096Zm6.60181,3.98365A2.3584,2.3584,0,1,1,63.987,41.05106,2.35839,2.35839,0,0,1,61.82772,43.21033Zm1.77237-9.1228a2.35839,2.35839,0,1,1,2.15928,2.15933A2.35842,2.35842,0,0,1,63.60009,34.08753Zm4.67023,8.29613a2.3584,2.3584,0,1,1,2.1593-2.15926A2.35842,2.35842,0,0,1,68.27032,42.38366Z"/>
      <path class="b474cd36-4c0e-42ea-9051-9cf93ae11fd0" d="M86.73328,30.79882V13.52593h6.48634a5.915,5.915,0,1,1,0,11.79551h-2.042v5.47738Zm4.4444-9.60941h1.96994a1.73136,1.73136,0,0,0,1.89784-1.75362,1.74939,1.74939,0,0,0-1.89784-1.77788H91.17768Z"/>
      <path class="b474cd36-4c0e-42ea-9051-9cf93ae11fd0" d="M101.12347,22.91908V13.526h4.46841v9.39311a3.67024,3.67024,0,1,0,7.32711,0V13.526h4.44447v9.39311a8.12012,8.12012,0,0,1-16.23994,0Z"/>
      <path class="b474cd36-4c0e-42ea-9051-9cf93ae11fd0" d="M119.18933,22.15032a8.75145,8.75145,0,0,1,8.67979-8.82253q.2006-.00164.40111.00592a8.21378,8.21378,0,0,1,8.45629,7.111h-4.44438a4.081,4.081,0,0,0-4.01191-2.93086,4.39376,4.39376,0,0,0-4.45068,4.33607q-.002.1503.00637.30045a4.41437,4.41437,0,0,0,4.16113,4.65386q.14145.00791.28318.00673a3.98419,3.98419,0,0,0,3.988-2.9309h4.49235a8.21377,8.21377,0,0,1-8.48032,7.111,8.77068,8.77068,0,0,1-9.07573-8.4546Q119.18767,22.34347,119.18933,22.15032Z"/>
      <path class="b474cd36-4c0e-42ea-9051-9cf93ae11fd0" d="M138.91271,30.79882V13.52593h6.48634a5.915,5.915,0,1,1,0,11.79551h-2.042v5.47738Zm4.44447-9.60947h1.96991a1.73126,1.73126,0,0,0,1.89783-1.75361,1.7493,1.7493,0,0,0-1.89783-1.77783h-1.97Z"/>
      <path class="b474cd36-4c0e-42ea-9051-9cf93ae11fd0" d="M153.75944,30.79882V13.52593h6.39024a5.99334,5.99334,0,0,1,6.335,5.631q.00466.07925.00723.1586a5.49581,5.49581,0,0,1-3.00291,4.87681l3.21913,6.60645h-4.82873l-2.57048-5.76559h-1.12919v5.76563Zm4.4203-9.46525h1.75373a1.93174,1.93174,0,1,0-.02394-3.84377h-1.72972Z"/>
      <g>
        <g>
          <path class="b474cd36-4c0e-42ea-9051-9cf93ae11fd0" d="M92.62758,43.9538l.05276.73111c.02211.22333.03059.37442.03059.45253l-.13569.02507a2.79586,2.79586,0,0,0-.80039-1.09749,1.89194,1.89194,0,0,0-1.17338-.36484,3.37587,3.37587,0,0,0-1.31822.20786,2.71006,2.71006,0,0,0-1.17006,1.01714,3.09355,3.09355,0,0,0-.48756,1.75272,2.98565,2.98565,0,0,0,.178,1.0635,3.26677,3.26677,0,0,0,.50453.8801,3.38017,3.38017,0,0,0,.76614.70386,2.1331,2.1331,0,0,0,.691.29925,3.03429,3.03429,0,0,0,.6733.05454,2.633,2.633,0,0,0,.64161-.084,1.29786,1.29786,0,0,0,.52514-.21963.683.683,0,0,0,.24544-.31178,2.33412,2.33412,0,0,0,.06408-.67218,2.2581,2.2581,0,0,0-.11057-.96845c-.07442-.0966-.30657-.15109-.69722-.18212l-.192-.014-.12936.0037c-.02211-.0037-.04566-.00665-.07887-.01109l-.07441-.12371a.177.177,0,0,1,.03577-.062,9.09617,9.09617,0,0,1,1.08931-.039c.12422,0,.32688.00514.61178.00808l.49269.02286.45-.0037c.08695,0,.18943.0037.31254.00884.025.00294.03495.00665.04123.01479a.06252.06252,0,0,1,.01.04052.5735.5735,0,0,1-.021.13782,1.59593,1.59593,0,0,1-.3151.04271l-.31215-.00512a.31951.31951,0,0,0-.25534.10981.71951.71951,0,0,0-.049.36184l.00293.63314a3.73039,3.73039,0,0,1-.04935.8247.39513.39513,0,0,1-.122.18945,1.41591,1.41591,0,0,1-.38295.202,3.67442,3.67442,0,0,1-.76131.22408,6.97431,6.97431,0,0,1-1.22719.11049,4.283,4.283,0,0,1-1.56478-.24242,3.08718,3.08718,0,0,1-1.04735-.67292,2.81694,2.81694,0,0,1-.62756-.87859,3.22816,3.22816,0,0,1-.28264-1.32448,3.40359,3.40359,0,0,1,.44333-1.65022,3.27266,3.27266,0,0,1,1.43723-1.31119,4.25923,4.25923,0,0,1,1.89717-.35013,5.16194,5.16194,0,0,1,1.35173.14008,3.35855,3.35855,0,0,1,.83723.3265m1.45311,5.69586a6.658,6.658,0,0,0,.79089-.11646.23434.23434,0,0,0,.11352-.14083v-.056c0-.07888.0151-.36922.04166-.86825.00551-.14076.00807-.283.00807-.4142l-.01509-.57564.01064-.64635-.00362-1.20734.00362-.866a1.44242,1.44242,0,0,0-.08438-.66628.69041.69041,0,0,0-.4573-.1732,2.39516,2.39516,0,0,1-.41313-.07518.08305.08305,0,0,1-.0391-.07517.33516.33516,0,0,1,.017-.09.37175.37175,0,0,1,.22257-.04489c.01479,0,.05789-.00666.13126-.01331a1.79918,1.79918,0,0,1,.20188-.01185h.39509l1.26842-.01321a4.98825,4.98825,0,0,1,1.50546.15624,1.39558,1.39558,0,0,1,.68137.538,1.465,1.465,0,0,1-.67,2.192,2.87916,2.87916,0,0,0-.24876.14891,8.39856,8.39856,0,0,0,.45329.83285l.61246,1.04734a5.539,5.539,0,0,0,.50454.72673,1.18247,1.18247,0,0,0,.34016.24394,3.2429,3.2429,0,0,0,.6733.18422c.00144.03027.00144.05607.00144.07516,0,.02145,0,.04424-.00144.0708-.44076.00807-.95565.00807-1.54857.00807a1.49131,1.49131,0,0,1-.17283-.00807c-.2292-.43633-.49382-.91466-.80409-1.44237L96.88587,47.07a.91027.91027,0,0,0-.2351-.255.59329.59329,0,0,0-.2502-.04936l-.40649.00513-.13745-.00513c-.007.10167-.01366.311-.01366.63012v1.64586a.84414.84414,0,0,0,.03646.25352.35246.35246,0,0,0,.13268.15185,2.989,2.989,0,0,0,.54542.16143l.19422.05307a.18764.18764,0,0,1,.03872.1267.90379.90379,0,0,1-.18317.02363c-.28711,0-.49051,0-.60621-.00957-.06339,0-.11237-.00446-.14966-.00446l-.65519.0089-.64016-.00444c-.02906,0-.17284.00444-.43633.0133l-.09395-.01774-.00959-.04788a.14444.14444,0,0,1,.06447-.10017m1.78624-3.14944c.08588.003.14891.00666.19163.00666a4.16392,4.16392,0,0,0,.79971-.084,1.19953,1.19953,0,0,0,.51556-.20642,1.03111,1.03111,0,0,0,.32877-.41789,1.30817,1.30817,0,0,0,.13373-.57336,1.40153,1.40153,0,0,0-.2071-.69573,1.22762,1.22762,0,0,0-.53548-.46439,2.01543,2.01543,0,0,0-.90878-.185,3.09754,3.09754,0,0,0-.33533.014c-.01623.16582-.02212.2948-.02212.38107l.02506.89919-.00293.37072c0,.25057.00475.56529.01729.95514m6.9117-2.8833a.43765.43765,0,0,1,.02317.12748.38784.38784,0,0,1-.014.08256.67739.67739,0,0,1-.2031.03389.72721.72721,0,0,1-.11351-.00807c-.05087,0-.09539-.00295-.12672-.00295a.65248.65248,0,0,0-.34868.08325.22775.22775,0,0,0-.10755.14227l-.0483.54838.01434,2.38361a9.32015,9.32015,0,0,0,.08588,1.631,1.22521,1.22521,0,0,0,.27571.52629,1.37325,1.37325,0,0,0,.58.34348,2.24062,2.24062,0,0,0,.75329.13554,2.67387,2.67387,0,0,0,1.25407-.23728,1.38461,1.38461,0,0,0,.62575-.64938,3.20959,3.20959,0,0,0,.18869-1.26622c0-.017-.00483-.14445-.01366-.38695v-.137c0-.05086.00188-.15185.00883-.30219.007-.1474.01251-.23661.01251-.26091l-.073-1.38569a4.47065,4.47065,0,0,0-.08144-.82107.37807.37807,0,0,0-.133-.18793,1.94561,1.94561,0,0,0-.71278-.24024.76163.76163,0,0,1-.02761-.14152c.12461-.01033.24989-.01849.373-.01849a3.91239,3.91239,0,0,1,.40386.01849c.20936.01253.32582.02061.34529.02061l.76251-.02061h.14958l-.00845.17466a1.672,1.672,0,0,0-.70612.17909.51549.51549,0,0,0-.11573.38326c0,.10174.007.31623.02136.64861l.02989.998-.00295.395.01331.50121a10.152,10.152,0,0,1-.05306,1.28834,2.553,2.553,0,0,1-.21857.75473,1.53289,1.53289,0,0,1-.40945.50047,2.022,2.022,0,0,1-.723.3692,2.84345,2.84345,0,0,1-.88553.14967,3.79121,3.79121,0,0,1-.99286-.09654,2.5373,2.5373,0,0,1-.87775-.44008,1.58035,1.58035,0,0,1-.4548-.54024,2.56858,2.56858,0,0,1-.16989-1.04213v-.33608l-.01348-1.3423.01358-1.08712V44.3496a.74494.74494,0,0,0-.07479-.3899.18118.18118,0,0,0-.15481-.07962l-.286.0052a.7861.7861,0,0,1-.40092-.06634.20585.20585,0,0,1-.01917-.07449.09221.09221,0,0,1,.03314-.07224.24777.24777,0,0,1,.13086-.03238h.12046l.32356-.00588h.76506Zm4.38394.039a1.00609,1.00609,0,0,1,.11383-.01177c.108,0,.28634.0037.53511.017.13487.0037.2237.0037.27456.0037.0674,0,.21418-.0037.443-.017l.82107-.04789c.21487-.02137.4625-.0317.74923-.0317a2.90345,2.90345,0,0,1,1.205.21449,1.50459,1.50459,0,0,1,.68953.66923,1.94344,1.94344,0,0,1,.24249.91322,1.81562,1.81562,0,0,1-.52733,1.29942,1.89119,1.89119,0,0,1-1.42622.54983,1.27386,1.27386,0,0,1-.80335-.2447.242.242,0,0,1-.11208-.13268.13169.13169,0,0,1,.05306-.04867.35258.35258,0,0,1,.13826.031,1.21181,1.21181,0,0,0,.41563.05524,1.42941,1.42941,0,0,0,.71866-.1865,1.225,1.225,0,0,0,.51337-.53065,1.63582,1.63582,0,0,0,.17284-.72968,1.57873,1.57873,0,0,0-.18137-.72968,1.55821,1.55821,0,0,0-.482-.566,1.491,1.491,0,0,0-.51449-.20264,2.70026,2.70026,0,0,0-.53949-.07963,1.67724,1.67724,0,0,0-.70756.08325l-.007.0708.01767.54024-.00551.09947c-.00514.08552-.01216.21676-.01216.3951,0,.65669.01216,1.06422.03095,1.2235v.27193l.06158,2.195c0,.03245-.00407.09366-.01223.182-.00588.08257-.00989.16069-.00989.22333a1.25731,1.25731,0,0,0,.03608.34936c.07736.02438.30552.07668.6755.15993.17064.04423.26906.06861.28377.07525a.14388.14388,0,0,1,.06785.06119.15344.15344,0,0,1-.05118.09291.27534.27534,0,0,1-.12347.02212c-.03645,0-.12935-.01035-.269-.02212a5.71973,5.71973,0,0,0-.65014-.04422l-.84462.0317-.50853-.01479c-.03027,0-.12166.0052-.27864.00882l-.00476-.12239.62832-.12378a.40722.40722,0,0,0,.18649-.08332.52145.52145,0,0,0,.04789-.2631c0-.03094.003-.09291.00333-.19023.00522-.07.00522-.16069.00522-.27936q0-.5682-.0468-2.41824c-.01442-.57858-.01995-1.16381-.01995-1.76v-.08475a.59689.59689,0,0,0-.10725-.43338,1.886,1.886,0,0,0-.88995-.25871.34972.34972,0,0,1-.02136-.08847.21772.21772,0,0,1,.02618-.0929m5.7876,3.06611a2.99338,2.99338,0,0,1,.11533-.87339,3.82038,3.82038,0,0,1,.398-.83065,2.77641,2.77641,0,0,1,.67329-.74584,3.7279,3.7279,0,0,1,1.09413-.53141,4.0511,4.0511,0,0,1,1.24192-.16219,3.76867,3.76867,0,0,1,.98764.13569,3.472,3.472,0,0,1,.87932.37812,3.04755,3.04755,0,0,1,.79195.74146,2.52843,2.52843,0,0,1,.41057.743,3.23175,3.23175,0,0,1,.18166,1.08492,3.94268,3.94268,0,0,1-.11864,1.05324,2.92421,2.92421,0,0,1-.41126.8262,3.6803,3.6803,0,0,1-.778.73263,2.95575,2.95575,0,0,1-.91059.44816,3.86081,3.86081,0,0,1-1.17233.17321,3.9852,3.9852,0,0,1-1.14092-.14891,3.06358,3.06358,0,0,1-.83437-.36558,3.02384,3.02384,0,0,1-.68908-.63455,2.86968,2.86968,0,0,1-.53585-.92206,3.20684,3.20684,0,0,1-.18281-1.10191m3.34034,2.9969a3.38335,3.38335,0,0,0,.83835-.11427,2.05728,2.05728,0,0,0,.7739-.37812,2.03522,2.03522,0,0,0,.527-.59255,3.1369,3.1369,0,0,0,.30288-.85936,4.89561,4.89561,0,0,0,.11573-1.05255,4.46342,4.46342,0,0,0-.19087-1.29421,2.33105,2.33105,0,0,0-.48643-.869,2.28508,2.28508,0,0,0-.81262-.58883,2.44473,2.44473,0,0,0-1.01746-.21375,2.60959,2.60959,0,0,0-.855.14589,2.26388,2.26388,0,0,0-.68877.37,2.32415,2.32415,0,0,0-.50266.63233,3.70981,3.70981,0,0,0-.349.91028,3.75934,3.75934,0,0,0-.12129.87337,3.99865,3.99865,0,0,0,.12129.9044,3.43537,3.43537,0,0,0,.32793.87708,2.8264,2.8264,0,0,0,.51451.65518,2.10579,2.10579,0,0,0,.6902.43933,2.14836,2.14836,0,0,0,.81225.1548"/>
          <path class="b474cd36-4c0e-42ea-9051-9cf93ae11fd0" d="M122.77866,49.76616l.01395-.32877a1.38794,1.38794,0,0,0,.7669-.24619,1.26753,1.26753,0,0,0,.16551-.60069l.05971-1.71872.07442-1.74752c.0033-.10618.007-.1695.007-.19388a2.00925,2.00925,0,0,0-.07887-.78712,1.29,1.29,0,0,0-.61766-.20486c-.08952-.01916-.16137-.03615-.21376-.05011a1.836,1.836,0,0,1-.00958-.19978v-.15623c.11872-.003.2606-.01177.42121-.01177l1.41218.04789c.02913.0052.07668.01033.13268.01479l.22333.00665a1.82767,1.82767,0,0,1,.16551.25427c.11752.23956.27412.583.4702,1.03406l.05344.13036.75065,1.63552c.02106.03909.04717.09509.08332.171.04936.11057.09844.22256.1529.32431.04974.10687.1028.22037.16106.34785.06083.12385.1102.23736.15442.33246a2.41466,2.41466,0,0,0,.133-.25435c.13116-.29328.25057-.56528.37661-.81661.21151-.43926.50113-1.10553.8653-2.007.05676-.1452.15177-.36113.28815-.6493.1305-.2963.20487-.44816.21745-.46507a.28.28,0,0,1,.17321-.03758c.03169,0,.08107-.0037.14741-.0037.1695-.01253.37222-.02211.60438-.0266.33685-.0037.60661-.01178.81-.0302.20862-.01773.32212-.02581.34721-.02581.03314,0,.07072.0037.11573.00807.00294.04423.00294.08407.00294.10544l-.00808.14446c0,.0317,0,.07593-.00369.13268a2.52215,2.52215,0,0,0-.73926.202c-.13192.06628-.19689.14514-.19689.24175v.07366l.08115,1.47483c.011.13268.03608.80711.07887,2.01506.011.2683.03237.6066.06408,1.026.0059.05086.00959.09433.00959.12015.00513.07736.01773.12452.04936.14815.03169.02287.32059.11352.86681.28008.0037.05454.00514.08845.00514.115,0,.0708-.00144.13856-.00514.202-.0855,0-.30664-.01253-.656-.05163a8.39649,8.39649,0,0,0-.98765-.056c-.46574,0-.9161.0148-1.35837.056-.056.00891-.11344.01261-.16876.01622l.01035-.33238a2.3604,2.3604,0,0,1,.5262-.13268.44441.44441,0,0,0,.29412-.13116,1.17278,1.17278,0,0,0,.06341-.51006c0-.10536-.003-.19821-.0059-.28151-.01623-.3391-.02581-.80417-.03027-1.4026l-.08031-1.70705c-.00958-.24174-.0221-.409-.03459-.49821l-1.20063,2.75584c-.02874.06188-.07222.15842-.129.27706-.073.15774-.12535.26831-.1489.32431-.2502.59632-.42122,1.0503-.51889,1.36727-.0266.07812-.06378.185-.11645.31617l-.37186-.00959-.25864-.73707c-.07887-.19382-.20974-.48349-.394-.87931-.11276-.23073-.19609-.412-.25834-.55428a.71852.71852,0,0,1-.05971-.13118l-.06083-.11939a.10636.10636,0,0,0-.01653-.04642l-.71569-1.54781-.43819-.94341-.04311,2.28337-.03131,1.48147a.78875.78875,0,0,0,.13781.52258,1.19593,1.19593,0,0,0,.59262.26754l.23148.0582v.35526a5.59992,5.59992,0,0,1-.60328-.045c-.2108-.02128-.49818-.03532-.84982-.03532-.07442,0-.39209.014-.95074.04424m8.682,0h.08846a4.34188,4.34188,0,0,0,.68024-.05382l.19822-.03759c.75474.05454,1.22795.08248,1.43059.08248a.69875.69875,0,0,0,.0096-.11352c0-.04422-.00145-.12238-.00657-.241-.20129-.02725-.31548-.04567-.34721-.05231a.85981.85981,0,0,1-.42159-.129.21482.21482,0,0,1-.06558-.17985,1.23,1.23,0,0,1,.09139-.34349c.21376-.60582.356-.98318.4238-1.13647l1.84111.00362.3803.94274.19163.47828a.35473.35473,0,0,1,.0243.13049.1595.1595,0,0,1-.045.10982,1.23811,1.23811,0,0,1-.28227.09652l-.538.11427a2.9109,2.9109,0,0,0-.0133.32507l.23812-.00884.81956-.04123c.112-.01253.29632-.01623.54613-.01623.23072,0,.49163.01623.77541.03608.28446.02143.54831.034.78938.034.00219-.04717.00219-.08115.00219-.10468a1.45562,1.45562,0,0,0-.02581-.23662,1.83687,1.83687,0,0,0-.423-.11574.52515.52515,0,0,1-.27936-.09586.63522.63522,0,0,1-.14521-.2329,5.45043,5.45043,0,0,1-.26385-.61911c-.11573-.30363-.20354-.52771-.26536-.68024-.11058-.25208-.23956-.57714-.38991-.97073-.15479-.40093-.32431-.81-.51374-1.23014L135.1266,43.493l-.04123-.08695h-.52621l-1.14463,2.99758-.97362,2.55536a.89818.89818,0,0,1-.19608.2764,1.48059,1.48059,0,0,1-.44884.13192c-.15775.02732-.26235.053-.32357.07Zm2.273-2.70943.69723-1.8669c.09728.20415.21816.49155.37513.86893.15405.38332.28085.71646.37813,1.00612l-.1231.00514c-.137,0-.57715-.00514-1.32742-.0133m4.748,2.41681a1.00869,1.00869,0,0,0-.01331.14884c0,.02128.0037.07374.00958.15328h.20718a4.55518,4.55518,0,0,0,.55715-.03458l.66334-.0449c.03758,0,.098-.00295.18135-.00295.12967,0,.53877.02876,1.23083.09208l.19457-.00957c.01849,0,.05608.00444.118.00444a2.44444,2.44444,0,0,0,.01995-.35525,3.90751,3.90751,0,0,0-.64862-.18717,1.188,1.188,0,0,1-.35385-.12091l.031-.91029-.02211-1.0724a2.94677,2.94677,0,0,1,.0132-.32869c.15261-.00665.26462-.01252.32725-.01252a.9213.9213,0,0,1,.49971.101,2.14751,2.14751,0,0,1,.33758.5351c.34423.68244.58371,1.17777.72817,1.49543.05239.11721.14891.29706.286.53956l.1606.31616c.05087-.00882.12385-.014.2086-.02287.1865-.02128.30372-.03532.33609-.03532l.48348.00732a2.34672,2.34672,0,0,1,.38039.02438h.19757l.25276.03162.0966-.00513h.13118c.00218-.04422.00369-.084.00369-.10909a.40349.40349,0,0,0-.02876-.14595,1.55977,1.55977,0,0,0-.33313-.16212,1.115,1.115,0,0,1-.36561-.191,3.29253,3.29253,0,0,1-.38179-.57632l-.7687-1.25376c-.084-.13554-.19313-.29918-.32876-.49231a2.60544,2.60544,0,0,1-.15548-.2366,1.923,1.923,0,0,0,.9736-.59851,1.43034,1.43034,0,0,0,.31254-.88515,1.489,1.489,0,0,0-.58522-1.15572,2.33014,2.33014,0,0,0-1.57362-.50635,11.32231,11.32231,0,0,0-1.191.062l-.60287.0265-.25427.01253c-.01919,0-.14447-.00883-.37813-.02868-.22258,0-.37367.00807-.4459.00807a2.67131,2.67131,0,0,0-.4437.03834l-.02.05381.00959.28967c.084.01321.26015.03019.51668.04789l.28673.05751c.01622.18279.02354.614.02354,1.28239,0,.30729-.00294.631-.01253.98394l-.011.26024.011.45027-.01917.57715.00521,1.07534a3.89809,3.89809,0,0,1-.014.46507,1.09646,1.09646,0,0,1-.02429.14076,2.25123,2.25123,0,0,1-.44741.10544,1.07251,1.07251,0,0,0-.37148.098m2.175-3.12581v-.13419c.00142-.23586.00437-.426.01319-.57042l-.00362-.527.01254-.39655-.00892-.64929.00892-.09291a2.35483,2.35483,0,0,1,.381-.02648,2.49742,2.49742,0,0,1,.67888.06995,1.15276,1.15276,0,0,1,.46575.28748.99432.99432,0,0,1,.20936.398,1.86009,1.86009,0,0,1,.08324.57194.98.98,0,0,1-.33978.78568,1.79339,1.79339,0,0,1-1.16379.29337c-.07441,0-.18272-.00522-.33676-.00959m4.709,3.42354c.06264-.00513.20272-.014.41058-.0354.32649-.0302.57335-.04789.74583-.04789l.85057.00816c.384.03977.597.06119.64343.07a.97745.97745,0,0,0,.12528.014c.01479,0,.07449,0,.17548-.00882a.51811.51811,0,0,1,.09728-.00513c.00369-.073.00513-.13269.00513-.16665,0-.0582-.00808-.14075-.01767-.23654-.17027-.0266-.2668-.03758-.29185-.0399-.16438-.01842-.33977-.04936-.53586-.0877a.34688.34688,0,0,1-.02724-.11057l.011-.18347-.0133-.96629.02067-.64568-.0074-1.27429c0-.29041.0074-.7105.01623-1.2515-.00883-.08921-.01623-.20272-.01623-.33758a1.76273,1.76273,0,0,1,.03027-.367,3.67731,3.67731,0,0,1,.40831-.12167,4.528,4.528,0,0,0,.4385-.12748,2.08352,2.08352,0,0,0,.0148-.21c0-.04423-.003-.10022-.00665-.15261-.062,0-.21151.01035-.44371.02431-.41722.02581-.723.0399-.91029.0399-.04422,0-.14883-.0037-.32136-.01177l-1.37685-.05239.01251.42085a1.16343,1.16343,0,0,0,.16514.01773,1.78813,1.78813,0,0,1,.642.11352,1.09843,1.09843,0,0,1,.03163.15252l.00958.2108.02582.5425-.01331.26529.00959.64273c0,.01767-.01472.34568-.03759.984l.00369.25872-.01177,1.10479.00808.56461a.85146.85146,0,0,1-.08845.41713,1.96282,1.96282,0,0,1-.46575.15775c-.14891.0354-.25359.06264-.31623.08475Zm7.59307-6.1101a4.8768,4.8768,0,0,0-.72748-.202,4.48129,4.48129,0,0,0-.68244-.08475,2.24547,2.24547,0,0,0-1.62441.53654,1.771,1.771,0,0,0-.54839,1.30607,1.8331,1.8331,0,0,0,.19609.79383,1.68123,1.68123,0,0,0,.54166.65888,5.44208,5.44208,0,0,0,1.23014.56091,3.71961,3.71961,0,0,1,1.08711.50266.83845.83845,0,0,1,.17044,1.17343l-.023.02938a1.03975,1.03975,0,0,1-.5071.36485,1.69689,1.69689,0,0,1-.57345.11057,1.54274,1.54274,0,0,1-.54393-.08847,1.48891,1.48891,0,0,1-.42968-.241,1.61923,1.61923,0,0,1-.33021-.40024c-.04573-.07516-.14445-.29035-.29705-.65156l-.45035.01253v.18061c0,.08989.00227.238.0089.44446.01842.40906.0265.62789.0265.66257v.056a.1576.1576,0,0,0,.042.0892.8752.8752,0,0,0,.3022.11941l.58076.171a4.21207,4.21207,0,0,0,.80483.098,3.38118,3.38118,0,0,0,.83807-.08845,2.27582,2.27582,0,0,0,.63163-.28153,2.81276,2.81276,0,0,0,.44809-.342,1.25106,1.25106,0,0,0,.29411-.44,2.44575,2.44575,0,0,0,.168-.89254,2.003,2.003,0,0,0-.10612-.69209,1.81543,1.81543,0,0,0-.39947-.57714,2.00723,2.00723,0,0,0-.6361-.42009,5.14727,5.14727,0,0,0-.71118-.27713,2.77705,2.77705,0,0,1-1.15059-.5447.84794.84794,0,0,1-.26974-.594.78843.78843,0,0,1,.27344-.6154,1.08471,1.08471,0,0,1,.75179-.24914,1.1508,1.1508,0,0,1,.86455.38695,2.40239,2.40239,0,0,1,.42159.86454l.0619.00808.345.02362.04937-.01253a1.2597,1.2597,0,0,0,.01765-.1849,7.35111,7.35111,0,0,0-.05524-.77836,3.27434,3.27434,0,0,0-.0899-.496m1.48441-.40688c-.02581.059-.06045.18649-.11284.373a10.16089,10.16089,0,0,1-.41344,1.25075,1.123,1.123,0,0,0,.28522.18868c.03691,0,.09728-.05381.17616-.15479a2.88577,2.88577,0,0,1,.62205-.65964,1.50542,1.50542,0,0,1,.60809-.08551c.55133,0,.87414.00807.97436.02212a.10325.10325,0,0,1,.06785.02724.14.14,0,0,1,.03682.06491,8.49576,8.49576,0,0,1,.02582.90878l.02581,1.82713c0,.83874-.01185,1.45784-.034,1.8411a.6651.6651,0,0,1-.05744.24106,3.51828,3.51828,0,0,1-.69574.22039.67847.67847,0,0,0-.401.20559v.03909l.00522.11057.01177.11049c.05305,0,.171-.00513.35449-.01909.47029-.03691.7533-.05381.84908-.05381.60808,0,1.02893.00665,1.26033.03388.23222.02.513.03389.84394.03389.04641,0,.10317,0,.17472-.00445a.80238.80238,0,0,0,.01691-.126c0-.02506-.00959-.09367-.02506-.21231-.07736-.02581-.16145-.05087-.25873-.07442-.21373-.05381-.33313-.07374-.35894-.07811a1.31213,1.31213,0,0,1-.28372-.0634,1.54849,1.54849,0,0,1-.06044-.499l.00445-.63013-.01555-1.53082V45.14038l-.00656-.64484a2.44723,2.44723,0,0,1,.02724-.30664c.13568-.014.24687-.02212.33759-.02212a10.0772,10.0772,0,0,1,1.02742.02506.26493.26493,0,0,1,.13412.08333,2.08116,2.08116,0,0,1,.18573.39721,3.55777,3.55777,0,0,0,.27271.54469,1.66047,1.66047,0,0,0,.34794-.08181.96354.96354,0,0,0,.01985-.213l.00665-.2462-.00665-.43118c0-.44884-.00219-.78054-.00657-1.00311-.062-.00144-.10908-.00665-.14226-.00665l-.21375.00665c-.02437.05454-.03834.09359-.05237.12015a.55937.55937,0,0,1-.13556.23812l-.283.03984h-1.49188l-1.08938-.00294-.58522.00294-.098.00808c-.19314.00293-.41276.00293-.6619.00293-.39577,0-.61767-.00293-.66039-.011a2.00139,2.00139,0,0,1-.20635-.3096c-.01109-.017-.02438-.042-.04789-.07592Zm5.41727,6.51185h.08475a4.36448,4.36448,0,0,0,.6825-.05381l.19821-.0376c.75179.05454,1.22938.08248,1.42841.08248a.57412.57412,0,0,0,.01027-.11351c0-.04422-.00295-.12239-.00437-.241-.19828-.02725-.31623-.04567-.34349-.05231a.86464.86464,0,0,1-.42748-.129.219.219,0,0,1-.06416-.17985,1.29667,1.29667,0,0,1,.09-.34348c.21668-.60583.35668-.98319.42454-1.13648l1.84336.00362.37661.94275.19156.47827a.36986.36986,0,0,1,.02431.13049.14073.14073,0,0,1-.04861.10982,1.03082,1.03082,0,0,1-.27639.09652l-.538.11427c-.00815.10392-.0148.21231-.0148.32507l.23736-.00883.81881-.04124c.11427-.01253.29925-.01623.55134-.01623.22921,0,.48574.01623.7739.03608.28672.02143.54612.034.78718.034.00219-.04717.0037-.08115.0037-.10468a1.83245,1.83245,0,0,0-.02437-.23662,1.87222,1.87222,0,0,0-.42522-.11573.53643.53643,0,0,1-.28159-.09586.63761.63761,0,0,1-.14151-.23291,5.39938,5.39938,0,0,1-.26605-.61911c-.115-.30363-.202-.52771-.26462-.68024-.10837-.25208-.23954-.57714-.39063-.97073-.15187-.40092-.32213-.81-.51444-1.23014l-.83655-1.98707-.0428-.087h-.52476l-1.14169,2.99758-.97435,2.5553a.91242.91242,0,0,1-.19676.27639,1.51427,1.51427,0,0,1-.44963.13193c-.15707.02732-.26243.053-.32507.07Zm2.26865-2.70943.6994-1.8669c.0973.20415.22039.49155.37738.86893.15328.38332.28084.71646.37812,1.00613l-.12309.00513c-.13344,0-.57859-.00513-1.33181-.0133"/>
        </g>
        <rect class="b474cd36-4c0e-42ea-9051-9cf93ae11fd0" x="86.77144" y="36.75877" width="80.00909" height="0.45919"/>
      </g>
    </g>
  </g>
</svg>
